<svg width="90" height="90" viewBox="0 0 90 90" fill="none" xmlns="http://www.w3.org/2000/svg">
<rect x="1" y="1" width="88" height="88" rx="44" fill="white"/>
<rect x="1" y="1" width="88" height="88" rx="44" stroke="#B3B3B3" stroke-width="2"/>
<path d="M57 38H55V34C55 28.48 50.52 24 45 24C39.48 24 35 28.48 35 34V38H33C30.8 38 29 39.8 29 42V62C29 64.2 30.8 66 33 66H57C59.2 66 61 64.2 61 62V42C61 39.8 59.2 38 57 38ZM45 56C42.8 56 41 54.2 41 52C41 49.8 42.8 48 45 48C47.2 48 49 49.8 49 52C49 54.2 47.2 56 45 56ZM51.2 38H38.8V34C38.8 30.58 41.58 27.8 45 27.8C48.42 27.8 51.2 30.58 51.2 34V38Z" fill="#6B6B6B"/>
</svg>
